<?xml version="1.0" encoding="UTF-8" standalone="no"?>
<svg
   xmlns:dc="http://purl.org/dc/elements/1.1/"
   xmlns:cc="http://creativecommons.org/ns#"
   xmlns:rdf="http://www.w3.org/1999/02/22-rdf-syntax-ns#"
   xmlns:svg="http://www.w3.org/2000/svg"
   xmlns="http://www.w3.org/2000/svg"
   xmlns:sodipodi="http://sodipodi.sourceforge.net/DTD/sodipodi-0.dtd"
   xmlns:inkscape="http://www.inkscape.org/namespaces/inkscape"
   version="1.1"
   viewBox="0 0 512 512"
   enable-background="new 0 0 512 512"
   id="svg9552"
   sodipodi:docname="syringe.svg"
   inkscape:version="0.92.5 (2060ec1f9f, 2020-04-08)">
  <metadata
     id="metadata9558">
    <rdf:RDF>
      <cc:Work
         rdf:about="">
        <dc:format>image/svg+xml</dc:format>
        <dc:type
           rdf:resource="http://purl.org/dc/dcmitype/StillImage" />
        <dc:title></dc:title>
      </cc:Work>
    </rdf:RDF>
  </metadata>
  <defs
     id="defs9556" />
  <sodipodi:namedview
     pagecolor="#ffffff"
     bordercolor="#666666"
     borderopacity="1"
     objecttolerance="10"
     gridtolerance="10"
     guidetolerance="10"
     inkscape:pageopacity="0"
     inkscape:pageshadow="2"
     inkscape:window-width="782"
     inkscape:window-height="480"
     id="namedview9554"
     showgrid="false"
     inkscape:zoom="0.4609375"
     inkscape:cx="256"
     inkscape:cy="256"
     inkscape:window-x="755"
     inkscape:window-y="387"
     inkscape:window-maximized="0"
     inkscape:current-layer="svg9552" />
  <g
     id="g9550">
    <g
       id="g9548">
      <path
         d="m495,93.5l-76.2-76.5c-8-8-20.9-8-28.9,0-8,8-8,20.9 0,28.9l23.7,23.8-19.9,19.9 28.8,28.9 19.9-19.9 23.7,23.7c12.5,11 24.9,4 28.9,0 8-7.9 8-20.9 0-28.8z"
         id="path9542" />
      <path
         d="m320.8,74.2c-8-8-20.9-8-28.9,0-8,8-8,20.9 0,28.9l11,11-102.2,102.2 94.9,95.1 102.2-102.2 11,11c3.7,4.7 18,10.9 28.9,0 8-8 8-20.9 0-28.9l-116.9-117.1z"
         id="path9544" />
      <path
         d="m103.6,313.4c-21.2,21.2-25.2,53.1-12.2,78.4l-74.4,74.3c-8,8-8,20.9 0,28.9 4,4 15.8,11.2 28.9,0l74.3-74.3c9.4,4.9 45,19.1 78.3-12.1l68.3-68.3-94.9-95.1-68.3,68.2z"
         id="path9546" />
    </g>
  </g>
</svg>
